<svg width="38.000000" height="25.140625" viewBox="0 0 38 25.1406" fill="none" xmlns="http://www.w3.org/2000/svg" xmlns:xlink="http://www.w3.org/1999/xlink">
	<desc>
			Created with Pixso.
	</desc>
	<defs/>
	<path d="M1.64 0L36.35 0C36.79 0 37.21 0.19 37.53 0.52C37.83 0.84 38 1.28 38 1.73L38 23.4C38 23.85 37.83 24.29 37.53 24.61C37.21 24.94 36.79 25.13 36.35 25.14L1.64 25.14C1.2 25.13 0.78 24.94 0.46 24.61C0.16 24.29 -0.01 23.85 0 23.4L0 1.73C-0.01 1.28 0.16 0.84 0.46 0.52C0.78 0.19 1.2 0 1.64 0Z" fill="#5870BE" fill-opacity="1.000000" fill-rule="nonzero"/>
	<path d="M16.62 12.57C16.62 10.79 17.14 9.06 18.12 7.58C19.1 6.1 20.5 4.95 22.12 4.27C23.75 3.59 25.54 3.42 27.27 3.76C29 4.1 30.58 4.96 31.82 6.22C33.07 7.47 33.92 9.07 34.26 10.82C34.6 12.56 34.43 14.36 33.76 16C33.08 17.64 31.94 19.05 30.48 20.03C29.01 21.02 27.29 21.55 25.53 21.55C24.36 21.55 23.2 21.32 22.12 20.86C21.04 20.41 20.06 19.75 19.23 18.92C18.4 18.08 17.75 17.09 17.3 16C16.85 14.92 16.62 13.75 16.62 12.57Z" fill="#FFAF38" fill-opacity="1.000000" fill-rule="nonzero"/>
	<path d="M11.87 21.54C10.35 21.54 8.86 21.15 7.53 20.4C6.21 19.66 5.09 18.58 4.29 17.28C3.5 15.98 3.04 14.49 2.97 12.96C2.9 11.43 3.23 9.91 3.91 8.54C4.59 7.17 5.6 6 6.86 5.14C8.11 4.28 9.57 3.75 11.08 3.62C12.6 3.48 14.11 3.74 15.5 4.36C16.89 4.99 18.1 5.96 19 7.18L17.82 7.18L17.82 7.78L19.42 7.78C19.53 7.97 19.65 8.17 19.75 8.37L17.22 8.37L17.22 8.97L20.04 8.97C20.13 9.17 20.21 9.37 20.28 9.57L16.63 9.57L16.63 10.17L20.46 10.17C20.95 11.94 20.88 13.82 20.27 15.56L16.63 15.56L16.63 16.16L20.03 16.16C19.95 16.36 19.85 16.56 19.75 16.75L17.22 16.75L17.22 17.35L19.41 17.35C19.28 17.56 19.14 17.76 19 17.95L17.82 17.95L17.82 18.55L18.51 18.55C17.67 19.49 16.65 20.25 15.5 20.76C14.36 21.28 13.13 21.54 11.87 21.54Z" fill="#E63737" fill-opacity="1.000000" fill-rule="nonzero"/>
	<path d="M24.06 12.59C24.93 12.71 25.57 13.32 25.62 14.23L25.1 14.16C25.05 13.55 24.57 13.16 24 13.08C23.21 12.98 22.51 13.51 22.37 14.64C22.23 15.76 22.77 16.45 23.55 16.55C24.13 16.62 24.69 16.37 24.89 15.79L25.41 15.85C25.14 16.72 24.36 17.15 23.49 17.04C22.38 16.9 21.69 15.94 21.86 14.57C22.04 13.2 22.95 12.45 24.06 12.59ZM2.19 14.23L2.74 9.9L3.37 9.98L4.38 13.76L4.43 13.77L6.36 10.36L6.98 10.45L6.43 14.77L5.94 14.71L6.36 11.42L6.32 11.42L4.55 14.53L4.08 14.47L3.14 11.01L3.1 11L2.68 14.29L2.19 14.23ZM15.01 12.58L15.71 12.67L15.65 13.1L14.96 13.01L14.72 14.9C14.66 15.32 14.87 15.42 15.09 15.45C15.2 15.46 15.27 15.45 15.31 15.45L15.35 15.91C15.28 15.93 15.16 15.95 14.97 15.92C14.55 15.87 14.13 15.54 14.2 14.97L14.46 12.94L13.97 12.88L14.02 12.46L14.51 12.52L14.61 11.74L15.11 11.81L15.01 12.58ZM19.97 16.53L19.48 16.46L19.89 13.22L20.37 13.28L20.31 13.77L20.34 13.77C20.5 13.47 20.87 13.29 21.26 13.34C21.33 13.35 21.46 13.37 21.52 13.38L21.45 13.89C21.42 13.88 21.29 13.83 21.15 13.82C20.68 13.76 20.29 14.03 20.24 14.47L19.97 16.53ZM29.87 17.81L29.37 17.74L29.79 14.5L30.27 14.56L30.21 15.05L30.24 15.05C30.4 14.75 30.76 14.57 31.15 14.62C31.23 14.63 31.36 14.65 31.41 14.66L31.35 15.17C31.32 15.16 31.18 15.12 31.05 15.1C30.58 15.04 30.19 15.31 30.13 15.75L29.87 17.81ZM9.39 14.71C9.26 14.91 8.93 15.17 8.36 15.1C7.74 15.02 7.3 14.59 7.38 13.96C7.47 13.22 8.15 13.17 8.76 13.17C9.36 13.17 9.6 13.22 9.63 12.98L9.64 12.96C9.69 12.55 9.5 12.27 9.04 12.21C8.56 12.15 8.27 12.37 8.13 12.6L7.68 12.37C8.01 11.81 8.59 11.71 9.07 11.77C9.49 11.83 10.26 12.05 10.13 13.08L9.86 15.22L9.36 15.15L9.41 14.71L9.39 14.71ZM12.34 12.2C12.98 12.28 13.29 12.63 13.39 13.11L12.93 13.18C12.87 12.95 12.72 12.68 12.28 12.63C11.89 12.57 11.56 12.74 11.53 13.02C11.5 13.27 11.65 13.42 12.03 13.56L12.49 13.74C13.05 13.96 13.3 14.28 13.24 14.74C13.17 15.3 12.61 15.64 11.85 15.54C11.19 15.46 10.77 15.11 10.72 14.54L11.21 14.48C11.26 14.84 11.49 15.05 11.9 15.1C12.36 15.16 12.69 14.97 12.73 14.69C12.75 14.47 12.62 14.29 12.3 14.18L11.78 13.98C11.2 13.76 10.97 13.43 11.03 12.98C11.1 12.43 11.65 12.11 12.34 12.2ZM18.76 15.6C18.55 16.08 18.02 16.34 17.36 16.26C16.42 16.14 15.93 15.39 16.06 14.4C16.19 13.4 16.86 12.78 17.74 12.89C18.41 12.98 19.08 13.49 18.93 14.7L18.9 14.91L16.54 14.6C16.48 15.3 16.83 15.73 17.42 15.81C17.81 15.86 18.13 15.73 18.3 15.41L18.76 15.6ZM27.99 17.12C27.86 17.31 27.53 17.58 26.96 17.51C26.35 17.43 25.9 17 25.98 16.37C26.08 15.62 26.75 15.57 27.36 15.57C27.97 15.57 28.21 15.63 28.24 15.39L28.24 15.37C28.29 14.95 28.1 14.68 27.64 14.62C27.17 14.56 26.87 14.78 26.73 15L26.28 14.77C26.61 14.21 27.19 14.12 27.68 14.18C28.09 14.23 28.86 14.45 28.73 15.49L28.46 17.62L27.96 17.56L28.02 17.12L27.99 17.12ZM17.68 13.34C17.11 13.27 16.7 13.67 16.6 14.17L18.45 14.41C18.52 13.86 18.22 13.41 17.68 13.34ZM7.88 14.05C7.83 14.4 8.1 14.61 8.49 14.66C9.08 14.74 9.46 14.38 9.51 13.98L9.57 13.52C9.47 13.61 8.89 13.6 8.68 13.6C8.28 13.6 7.92 13.67 7.88 14.05ZM26.48 16.46C26.43 16.8 26.7 17.02 27.1 17.07C27.69 17.15 28.06 16.79 28.11 16.38L28.17 15.93C28.07 16.02 27.5 16 27.28 16C26.89 16 26.53 16.08 26.48 16.46ZM3.47 20.94C3.34 21.11 3.08 21.47 2.46 21.39C1.64 21.28 1.16 20.56 1.29 19.53C1.42 18.5 2.07 17.93 2.89 18.03C3.53 18.11 3.67 18.53 3.76 18.71L3.8 18.72L4.01 17.12L4.5 17.18L3.95 21.51L3.47 21.45L3.53 20.95L3.47 20.94ZM1.79 19.58C1.7 20.28 1.96 20.87 2.58 20.95C3.18 21.03 3.57 20.56 3.67 19.83C3.76 19.1 3.5 18.57 2.89 18.49C2.26 18.41 1.88 18.9 1.79 19.58Z" fill="#FFFFFF" fill-opacity="1.000000" fill-rule="evenodd"/>
</svg>
