<svg width="38.046875" height="25.140625" viewBox="0 0 38.0469 25.1406" fill="none" xmlns="http://www.w3.org/2000/svg" xmlns:xlink="http://www.w3.org/1999/xlink">
	<desc>
			Created with Pixso.
	</desc>
	<defs/>
	<path d="M1.65 0L36.39 0C36.83 0.01 37.26 0.2 37.57 0.52C37.88 0.85 38.05 1.28 38.04 1.73L38.04 23.4C38.05 23.85 37.88 24.28 37.57 24.61C37.26 24.93 36.83 25.12 36.39 25.14L1.65 25.14C1.2 25.12 0.78 24.93 0.46 24.61C0.15 24.28 -0.01 23.85 0 23.4L0 1.73C-0.01 1.28 0.15 0.85 0.46 0.52C0.78 0.2 1.2 0.01 1.65 0Z" fill="#F1F1F1" fill-opacity="1.000000" fill-rule="nonzero"/>
	<path d="M0.4 24.54C0.14 24.22 0 23.82 0 23.4L0 1.73C-0.01 1.28 0.15 0.85 0.46 0.52C0.78 0.2 1.2 0.01 1.65 0L36.39 0C36.81 0 37.21 0.16 37.51 0.46L0.41 24.54L0.4 24.54Z" fill="#FFFFFF" fill-opacity="0.730000" fill-rule="nonzero"/>
	<path d="M14.64 17.96L15.94 15.6L15.21 9.96L16.99 9.96L17.28 13.31L19 9.96L20.83 9.96L16.63 17.96L14.64 17.96ZM9.09 13.75C9.36 12.37 10.69 11.93 12.65 11.93C12.77 11.32 12.38 11.17 11.71 11.19C11.13 11.22 10.56 11.35 10.02 11.58L10.17 10.21C10.82 10.01 11.49 9.89 12.16 9.86C13.39 9.84 14.75 10.23 14.44 11.82L13.68 15.57L11.91 15.57L12.03 15C11.82 15.21 11.57 15.39 11.3 15.5C11.03 15.62 10.74 15.68 10.44 15.68C9.6 15.67 8.85 15.13 9.09 13.74L9.09 13.75ZM10.9 13.65C10.84 13.73 10.81 13.82 10.81 13.92C10.8 14.02 10.83 14.11 10.88 14.2C10.92 14.28 11 14.35 11.09 14.39C11.17 14.43 11.27 14.45 11.36 14.44C11.58 14.45 11.8 14.38 11.97 14.25C12.14 14.1 12.26 13.92 12.3 13.7C12.32 13.53 12.35 13.36 12.4 13.2L11.96 13.2C11.75 13.18 11.55 13.21 11.37 13.29C11.18 13.37 11.02 13.5 10.9 13.65L10.9 13.65ZM2.99 15.57L4.45 8.4L7.76 8.4C8.05 8.4 8.35 8.46 8.6 8.6C8.87 8.73 9.1 8.92 9.27 9.17C9.44 9.41 9.56 9.68 9.6 9.97C9.64 10.27 9.61 10.57 9.52 10.84C9.42 11.5 9.1 12.1 8.6 12.53C8.09 12.96 7.45 13.2 6.78 13.2L5.4 13.2L4.93 15.57L2.99 15.57ZM5.68 11.82L6.59 11.82C6.85 11.8 7.11 11.7 7.31 11.52C7.51 11.34 7.64 11.1 7.7 10.84C7.75 10.74 7.75 10.62 7.75 10.5C7.73 10.39 7.69 10.28 7.63 10.18C7.57 10.09 7.48 10.01 7.38 9.95C7.28 9.89 7.16 9.86 7.05 9.86L6.1 9.86L5.68 11.82Z" fill="#3284AE" fill-opacity="1.000000" fill-rule="nonzero"/>
	<path d="M26.31 13.74C26.58 12.37 27.92 11.93 29.91 11.93C30.05 11.32 29.66 11.17 28.99 11.19C28.39 11.22 27.8 11.35 27.25 11.58L27.41 10.21C28.07 10.01 28.75 9.89 29.44 9.86C30.68 9.84 32.04 10.23 31.72 11.82L30.96 15.57L29.18 15.57L29.3 15C28.87 15.43 28.29 15.67 27.68 15.68C26.82 15.68 26.07 15.14 26.31 13.74ZM28.14 13.65C28.09 13.74 28.06 13.83 28.06 13.93C28.05 14.03 28.08 14.12 28.14 14.21C28.18 14.28 28.26 14.35 28.35 14.39C28.43 14.44 28.53 14.45 28.64 14.44C28.85 14.45 29.07 14.38 29.24 14.25C29.4 14.1 29.52 13.92 29.56 13.7C29.6 13.53 29.62 13.37 29.66 13.2L29.22 13.2C29.02 13.17 28.82 13.21 28.62 13.29C28.43 13.37 28.27 13.5 28.14 13.65L28.14 13.65ZM31.78 15.57L33.24 8.38L35.06 8.38L33.57 15.57L31.78 15.57ZM20.21 15.57L21.67 8.4L24.97 8.4C25.26 8.4 25.55 8.47 25.82 8.6C26.07 8.74 26.3 8.93 26.47 9.17C26.64 9.41 26.76 9.68 26.8 9.97C26.85 10.27 26.82 10.57 26.72 10.84C26.63 11.5 26.3 12.1 25.79 12.53C25.29 12.96 24.64 13.2 23.98 13.2L22.62 13.2L22.12 15.57L20.21 15.57ZM22.89 11.82L23.78 11.82C24.05 11.8 24.31 11.7 24.51 11.52C24.71 11.34 24.85 11.1 24.91 10.84C24.95 10.73 24.96 10.61 24.95 10.5C24.93 10.39 24.89 10.28 24.82 10.18C24.76 10.08 24.67 10 24.57 9.95C24.46 9.89 24.35 9.86 24.24 9.86L23.29 9.86L22.89 11.82Z" fill="#3CA9C7" fill-opacity="1.000000" fill-rule="nonzero"/>
</svg>
