<svg width="38.000000" height="25.140625" viewBox="0 0 38 25.1406" fill="none" xmlns="http://www.w3.org/2000/svg" xmlns:xlink="http://www.w3.org/1999/xlink">
	<desc>
			Created with Pixso.
	</desc>
	<defs>
		<linearGradient x1="19.000000" y1="25.142090" x2="19.000000" y2="0.000000" id="paint_linear_7601_8953_0" gradientUnits="userSpaceOnUse">
			<stop stop-color="#E59703"/>
			<stop offset="0.231000" stop-color="#E59703"/>
			<stop offset="0.234000" stop-color="#FFFFFF"/>
			<stop offset="0.761000" stop-color="#FFFFFF"/>
			<stop offset="0.766000" stop-color="#5457BB"/>
			<stop offset="1.000000" stop-color="#5457BB"/>
		</linearGradient>
	</defs>
	<path id="Shape 327" d="M1.65 0L36.34 0C36.57 0 36.78 0.05 36.99 0.14C37.19 0.23 37.37 0.35 37.53 0.52C37.67 0.67 37.8 0.87 37.88 1.07C37.96 1.28 38 1.5 38 1.73L38 23.4C38 23.63 37.96 23.85 37.88 24.06C37.8 24.27 37.67 24.46 37.53 24.61C37.37 24.78 37.19 24.91 36.99 25C36.78 25.08 36.57 25.14 36.34 25.14L1.65 25.14C1.42 25.14 1.21 25.08 1 25C0.8 24.91 0.62 24.78 0.46 24.61C0.32 24.46 0.19 24.27 0.11 24.06C0.03 23.85 -0.01 23.63 0 23.4L0 1.73C-0.01 1.5 0.03 1.28 0.11 1.07C0.19 0.87 0.32 0.67 0.46 0.52C0.62 0.35 0.8 0.23 1 0.14C1.21 0.05 1.42 0 1.65 0Z" fill="url(#paint_linear_7601_8953_0)" fill-opacity="1.000000" fill-rule="nonzero"/>
	<path id="Shape 329" d="M29.71 17.22L29.46 15.92L26.75 15.92L26.31 17.22L24.08 17.22L27.26 9.16C27.34 8.96 27.47 8.78 27.65 8.67C27.82 8.55 28.03 8.5 28.25 8.51L29.96 8.51L31.67 17.22L29.71 17.22ZM28.49 10.88L27.36 14.14L29.11 14.14L28.49 10.88ZM21.26 11C21.26 11.95 24.24 12.15 24.24 14.34C24.24 16.45 22.04 17.22 20.59 17.22C19.76 17.24 18.94 17.07 18.18 16.75L18.5 14.85C19.37 15.57 22.01 15.78 22.01 14.64C22.01 13.5 19.07 13.46 19.07 11.29C19.07 8.98 21.57 8.5 22.64 8.5C23.29 8.52 23.93 8.64 24.55 8.87L24.25 10.68C23.34 10.17 21.26 10.04 21.26 11L21.26 11ZM14.74 17.22L16.07 8.51L18.2 8.51L16.87 17.22L14.74 17.22ZM9.62 17.22L7.78 9.66C8.1 9.87 8.41 10.1 8.71 10.35C9.6 11.11 10.27 12.1 10.67 13.21L10.91 14.5L12.94 8.51L15.24 8.51L11.85 17.22L9.62 17.22ZM7.64 9.57C7.58 9.53 7.51 9.5 7.45 9.46C7.51 9.5 7.58 9.54 7.64 9.58L7.64 9.57ZM7.14 9.28C7.08 9.26 7.02 9.22 6.96 9.2C7.02 9.23 7.07 9.26 7.14 9.29L7.14 9.28Z" fill="#494CA3" fill-opacity="1.000000" fill-rule="nonzero"/>
</svg>
