<svg width="38.000000" height="25.140625" viewBox="0 0 38 25.1406" fill="none" xmlns="http://www.w3.org/2000/svg" xmlns:xlink="http://www.w3.org/1999/xlink">
	<desc>
			Created with Pixso.
	</desc>
	<defs/>
	<path d="M1.65 0L36.34 0C36.57 0 36.78 0.05 36.99 0.14C37.19 0.23 37.37 0.35 37.53 0.52C37.67 0.67 37.8 0.87 37.88 1.07C37.96 1.28 38 1.5 38 1.73L38 23.4C38 23.85 37.83 24.29 37.53 24.62C37.21 24.94 36.79 25.13 36.34 25.14L1.65 25.14C1.2 25.13 0.78 24.94 0.46 24.62C0.16 24.29 -0.01 23.85 0 23.4L0 1.73C-0.01 1.5 0.03 1.28 0.11 1.07C0.19 0.87 0.32 0.67 0.46 0.52C0.62 0.35 0.8 0.23 1 0.14C1.21 0.05 1.42 0 1.65 0Z" fill="#353A40" fill-opacity="1.000000" fill-rule="nonzero"/>
	<path d="M22.5 16.56C22.24 16.42 22.02 16.21 21.88 15.96C21.71 15.64 21.63 15.28 21.64 14.92C21.63 14.67 21.66 14.42 21.74 14.19C21.82 13.96 21.95 13.75 22.11 13.56C22.28 13.39 22.49 13.27 22.71 13.18C22.94 13.1 23.18 13.07 23.42 13.07C23.66 13.06 23.9 13.1 24.13 13.17C24.36 13.26 24.57 13.39 24.75 13.55C24.91 13.74 25.03 13.95 25.11 14.17C25.19 14.4 25.22 14.64 25.21 14.89C25.22 15.24 25.16 15.59 25.01 15.91C24.88 16.17 24.67 16.39 24.42 16.53C24.13 16.69 23.8 16.77 23.46 16.75C23.13 16.77 22.8 16.7 22.5 16.56ZM22.9 14.14C22.77 14.39 22.71 14.65 22.71 14.92C22.71 15.19 22.77 15.46 22.9 15.7C22.96 15.77 23.05 15.83 23.14 15.87C23.23 15.91 23.33 15.93 23.42 15.93C23.53 15.93 23.63 15.91 23.71 15.87C23.81 15.83 23.89 15.77 23.96 15.7C24.1 15.45 24.17 15.16 24.14 14.87C24.17 14.61 24.1 14.35 23.95 14.14C23.89 14.06 23.8 14 23.71 13.96C23.62 13.92 23.52 13.9 23.42 13.9C23.32 13.9 23.22 13.92 23.13 13.96C23.04 14 22.96 14.07 22.9 14.14ZM13.07 16.71C12.89 16.7 12.73 16.65 12.57 16.57C12.43 16.5 12.31 16.39 12.21 16.26C12.1 16.14 12.03 16 11.98 15.85C11.92 15.66 11.89 15.46 11.88 15.25L11.88 13.14L12.94 13.14L12.94 15.31C12.94 15.39 12.95 15.47 12.98 15.55C13 15.63 13.05 15.7 13.1 15.76C13.22 15.86 13.38 15.92 13.53 15.92C13.69 15.92 13.85 15.86 13.96 15.76C14.02 15.7 14.07 15.63 14.09 15.55C14.12 15.47 14.13 15.39 14.12 15.3L14.12 13.14L15.18 13.14L15.18 15.25C15.18 15.46 15.15 15.66 15.09 15.85C15.03 16.03 14.92 16.21 14.78 16.34C14.67 16.47 14.53 16.57 14.36 16.64C14.12 16.72 13.87 16.77 13.61 16.76C13.43 16.75 13.25 16.75 13.07 16.71L13.07 16.71ZM28.08 16.69L26.79 14.75L26.79 16.69L25.79 16.69L25.79 13.14L26.78 13.14L28.08 15.1L28.08 13.14L29.09 13.14L29.09 16.69L28.08 16.69ZM18.19 16.69L16.9 14.75L16.9 16.69L15.89 16.69L15.89 13.14L16.89 13.14L18.18 15.1L18.18 13.14L19.19 13.14L19.19 16.69L18.19 16.69ZM19.94 16.68L19.94 13.14L21.01 13.14L21.01 16.68L19.94 16.68ZM11.81 11.71C11.57 11.46 11.44 11.15 11.42 10.82L12.43 10.75C12.45 10.89 12.49 11.03 12.57 11.14C12.62 11.21 12.69 11.27 12.78 11.31C12.85 11.35 12.95 11.36 13.03 11.35C13.17 11.36 13.29 11.32 13.39 11.25C13.42 11.21 13.46 11.17 13.48 11.14C13.5 11.09 13.51 11.04 13.51 11C13.51 10.95 13.5 10.9 13.48 10.85C13.46 10.82 13.43 10.78 13.39 10.75C13.23 10.64 13.04 10.57 12.85 10.54C12.49 10.48 12.14 10.33 11.85 10.1C11.75 10.02 11.67 9.92 11.63 9.8C11.57 9.67 11.55 9.55 11.56 9.42C11.56 9.24 11.6 9.06 11.71 8.9C11.82 8.73 11.98 8.6 12.17 8.52C12.44 8.42 12.73 8.37 13.02 8.38C13.37 8.35 13.72 8.45 14.03 8.64C14.15 8.73 14.25 8.85 14.32 9C14.39 9.14 14.43 9.28 14.44 9.44L13.43 9.5C13.42 9.37 13.36 9.25 13.27 9.15C13.17 9.07 13.04 9.03 12.91 9.04C12.82 9.03 12.71 9.07 12.64 9.13C12.6 9.15 12.58 9.18 12.57 9.21C12.55 9.25 12.54 9.28 12.54 9.32C12.54 9.35 12.55 9.39 12.56 9.41C12.57 9.44 12.6 9.46 12.62 9.48C12.72 9.55 12.85 9.59 12.97 9.61C13.32 9.67 13.66 9.78 13.98 9.92C14.16 10.01 14.31 10.14 14.42 10.32C14.51 10.48 14.56 10.66 14.55 10.84C14.55 11.07 14.49 11.28 14.37 11.47C14.25 11.67 14.07 11.82 13.85 11.91C13.59 12.02 13.31 12.07 13.03 12.06C12.59 12.1 12.15 11.98 11.81 11.71ZM28.08 12L26.79 10.04L26.79 12L25.79 12L25.79 8.44L26.78 8.44L28.08 10.41L28.08 8.44L29.09 8.44L29.09 12L28.08 12ZM24.24 12L23.67 10.91C23.63 10.8 23.56 10.71 23.48 10.64C23.4 10.58 23.31 10.55 23.21 10.55L23.12 10.55L23.12 12L22.05 12L22.05 8.44L23.82 8.44C24.08 8.43 24.34 8.46 24.58 8.53C24.75 8.58 24.9 8.7 25 8.85C25.11 9.02 25.17 9.22 25.16 9.42C25.17 9.6 25.13 9.78 25.04 9.93C24.96 10.08 24.84 10.2 24.71 10.28C24.59 10.35 24.46 10.39 24.33 10.42C24.42 10.46 24.52 10.5 24.6 10.56C24.67 10.61 24.73 10.67 24.78 10.75C24.83 10.81 24.89 10.89 24.92 10.96L25.44 12L24.24 12ZM23.12 9.88L23.57 9.88C23.67 9.87 23.76 9.85 23.85 9.83C23.92 9.82 23.99 9.78 24.03 9.72C24.07 9.66 24.1 9.59 24.1 9.51C24.1 9.46 24.09 9.41 24.07 9.37C24.05 9.32 24.03 9.28 23.99 9.25C23.87 9.17 23.73 9.14 23.59 9.16L23.12 9.16L23.12 9.88ZM18.56 12L18.56 8.44L21.42 8.44L21.42 9.2L19.63 9.2L19.63 9.76L21.29 9.76L21.29 10.49L19.63 10.49L19.63 11.19L21.47 11.19L21.47 12L18.56 12ZM15.93 12L15.93 9.32L14.85 9.32L14.85 8.44L18.08 8.44L18.08 9.32L17 9.32L17 12L15.93 12ZM8.13 12L8.13 8.44L10.99 8.44L10.99 9.2L9.2 9.2L9.2 9.76L10.85 9.76L10.85 10.49L9.19 10.49L9.19 11.19L11.03 11.19L11.03 12L8.13 12ZM5.98 12L5.38 9.75L4.78 12L3.73 12L2.96 8.44L3.97 8.44L4.34 10.42L4.87 8.44L5.88 8.44L6.42 10.42L6.78 8.44L7.78 8.44L7.03 12L5.98 12Z" fill="#ECD345" fill-opacity="1.000000" fill-rule="nonzero"/>
	<path d="M33.84 16.75L33.84 8.37L35.03 8.37L35.03 16.75L33.84 16.75ZM30.87 16.75L30.87 8.37L32.06 8.37L32.06 16.75L30.87 16.75Z" fill="#ECD345" fill-opacity="1.000000" fill-rule="nonzero"/>
</svg>
